<svg xmlns="http://www.w3.org/2000/svg" width="29" height="29" viewBox="0 0 29 29" fill="none">
  <path d="M21.7351 4.13782V3.55511C21.7351 2.89853 21.2013 2.36475 20.5448 2.36475C19.8882 2.36475 19.3544 2.89898 19.3544 3.55511V4.05536H15.6909V3.55511C15.6909 2.89853 15.1567 2.36475 14.5005 2.36475C13.8444 2.36475 13.3102 2.89898 13.3102 3.55511V4.05536H9.64666V3.55511C9.64666 2.89853 9.11242 2.36475 8.4563 2.36475C7.80017 2.36475 7.26594 2.89898 7.26594 3.55511V4.13828C4.23453 4.61632 1.99609 7.16289 1.99609 10.2278V20.4631C1.99609 23.8665 4.81045 26.6356 8.27006 26.6356H20.7305C24.1902 26.6356 27.0045 23.8665 27.0045 20.4631V10.2278C27.0041 7.16289 24.7656 4.61632 21.7351 4.13782ZM20.2602 3.55511C20.2602 3.39832 20.3875 3.271 20.5443 3.271C20.7011 3.271 20.8284 3.39832 20.8284 3.55511V5.42651C20.8284 5.58329 20.7011 5.71062 20.5443 5.71062C20.3875 5.71062 20.2602 5.58329 20.2602 5.42651V3.55511ZM14.216 3.55511C14.216 3.39832 14.3433 3.271 14.5001 3.271C14.6569 3.271 14.7842 3.39832 14.7842 3.55511V5.42651C14.7842 5.58329 14.6569 5.71062 14.5001 5.71062C14.3433 5.71062 14.216 5.58329 14.216 5.42651V3.55511ZM8.17128 3.55511C8.17128 3.39832 8.29861 3.271 8.45539 3.271C8.61217 3.271 8.7395 3.39832 8.7395 3.55511V5.42651C8.7395 5.58329 8.61217 5.71062 8.45539 5.71062C8.29861 5.71062 8.17128 5.58329 8.17128 5.42651V3.55511ZM7.26503 5.05178V5.42606C7.26503 6.08264 7.79881 6.61642 8.45539 6.61642C9.11197 6.61642 9.64575 6.08218 9.64575 5.42606V4.96161H13.3093V5.42651C13.3093 6.08309 13.8435 6.61687 14.4996 6.61687C15.1558 6.61687 15.69 6.08264 15.69 5.42651V4.96161H19.3535V5.42651C19.3535 6.08309 19.8877 6.61687 20.5439 6.61687C21.2 6.61687 21.7342 6.08264 21.7342 5.42651V5.05178C24.2164 5.50943 26.0385 7.59925 26.0919 10.1154H2.90778C2.9608 7.59925 4.78281 5.50943 7.26503 5.05178ZM26.0978 20.4631C26.0978 23.3667 23.6899 25.7293 20.7301 25.7293H8.26961C5.3098 25.7293 2.90189 23.3667 2.90189 20.4631V11.0222H26.0974L26.0978 20.4631Z" fill="#A5A3A7"/>
</svg>