<svg preserveAspectRatio="none" width="100%" height="100%" overflow="visible" style="display: block;" viewBox="0 0 25 25" fill="none" xmlns="http://www.w3.org/2000/svg">
<g id="Layer_2">
<path id="Vector" d="M19.739 1.77308V1.19036C19.739 0.533781 19.2052 0 18.5487 0C17.8921 0 17.3583 0.534234 17.3583 1.19036V1.69061H13.6948V1.19036C13.6948 0.533781 13.1606 0 12.5044 0C11.8483 0 11.3141 0.534234 11.3141 1.19036V1.69061H7.65056V1.19036C7.65056 0.533781 7.11633 0 6.4602 0C5.80408 0 5.26984 0.534234 5.26984 1.19036V1.77353C2.23844 2.25158 0 4.79814 0 7.86308V18.0984C0 21.5018 2.81436 24.2708 6.27397 24.2708H18.7345C22.1941 24.2708 25.0084 21.5018 25.0084 18.0984V7.86308C25.008 4.79814 22.7695 2.25158 19.739 1.77308ZM18.2641 1.19036C18.2641 1.03358 18.3914 0.90625 18.5482 0.90625C18.705 0.90625 18.8323 1.03358 18.8323 1.19036V3.06177C18.8323 3.21855 18.705 3.34588 18.5482 3.34588C18.3914 3.34588 18.2641 3.21855 18.2641 3.06177V1.19036ZM12.2199 1.19036C12.2199 1.03358 12.3472 0.90625 12.504 0.90625C12.6608 0.90625 12.7881 1.03358 12.7881 1.19036V3.06177C12.7881 3.21855 12.6608 3.34588 12.504 3.34588C12.3472 3.34588 12.2199 3.21855 12.2199 3.06177V1.19036ZM6.17519 1.19036C6.17519 1.03358 6.30252 0.90625 6.4593 0.90625C6.61608 0.90625 6.74341 1.03358 6.74341 1.19036V3.06177C6.74341 3.21855 6.61608 3.34588 6.4593 3.34588C6.30252 3.34588 6.17519 3.21855 6.17519 3.06177V1.19036ZM5.26894 2.68703V3.06131C5.26894 3.71789 5.80272 4.25167 6.4593 4.25167C7.11587 4.25167 7.64966 3.71744 7.64966 3.06131V2.59686H11.3132V3.06177C11.3132 3.71834 11.8474 4.25212 12.5035 4.25212C13.1597 4.25212 13.6939 3.71789 13.6939 3.06177V2.59686H17.3574V3.06177C17.3574 3.71834 17.8916 4.25212 18.5478 4.25212C19.2039 4.25212 19.7381 3.71789 19.7381 3.06177V2.68703C22.2203 3.14469 24.0424 5.2345 24.0958 7.7507H0.911687C0.964703 5.2345 2.78672 3.14469 5.26894 2.68703ZM24.1017 18.0984C24.1017 21.002 21.6938 23.3646 18.734 23.3646H6.27352C3.3137 23.3646 0.905797 21.002 0.905797 18.0984V8.65741H24.1013L24.1017 18.0984Z" fill="var(--fill-0, #A5A3A7)"/>
</g>
</svg>
