<svg xmlns="http://www.w3.org/2000/svg" width="20" height="20" viewBox="0 0 20 20" fill="none">
  <path d="M11.872 2.48946C11.8376 2.48966 11.8039 2.47961 11.7752 2.46059C11.7466 2.44157 11.7242 2.41444 11.711 2.38266C11.6978 2.35088 11.6944 2.31589 11.7011 2.28215C11.7079 2.24842 11.7246 2.21746 11.749 2.19323L13.9025 0.0416555C13.9356 0.0132751 13.9782 -0.00155484 14.0219 0.000129195C14.0655 0.00181324 14.1068 0.0198872 14.1377 0.0507393C14.1685 0.0815915 14.1866 0.122949 14.1883 0.166548C14.19 0.210147 14.1751 0.252776 14.1468 0.285916C11.8322 2.60899 11.976 2.48946 11.872 2.48946Z" fill="#F6B756"/>
  <path d="M17.6742 8.29111C17.6403 8.29063 17.6073 8.28022 17.5793 8.26115C17.5512 8.24208 17.5294 8.21521 17.5165 8.18385C17.5036 8.15249 17.5001 8.11804 17.5066 8.08476C17.5131 8.05147 17.5292 8.02082 17.553 7.99661L19.7047 5.8433C19.7208 5.82727 19.74 5.81457 19.7611 5.80593C19.7821 5.79729 19.8047 5.79289 19.8274 5.79297C19.8502 5.79305 19.8727 5.79761 19.8937 5.8064C19.9147 5.81518 19.9338 5.82802 19.9498 5.84417C19.9659 5.86032 19.9786 5.87948 19.9872 5.90054C19.9959 5.9216 20.0003 5.94415 20.0002 5.96691C20.0001 5.98968 19.9955 6.0122 19.9868 6.0332C19.978 6.0542 19.9651 6.07326 19.949 6.0893C17.6344 8.40371 17.7782 8.29111 17.6742 8.29111Z" fill="#F6B756"/>
  <path d="M17.6554 2.50852C17.6214 2.50838 17.5881 2.4982 17.5598 2.47926C17.5315 2.46033 17.5094 2.43347 17.4963 2.40205C17.4832 2.37062 17.4796 2.33603 17.486 2.30259C17.4925 2.26914 17.5086 2.23834 17.5324 2.21402L19.6842 0.0607125C19.7168 0.0280917 19.761 0.00976562 19.8072 0.00976563C19.8533 0.00976563 19.8976 0.0280918 19.9302 0.0607125C19.9628 0.0933332 19.9811 0.137576 19.9811 0.183709C19.9811 0.229842 19.9628 0.274085 19.9302 0.306706C17.6156 2.62112 17.7594 2.50852 17.6554 2.50852Z" fill="#F6B756"/>
  <path d="M17.9811 2.00966V2.95552C17.9816 3.65738 17.796 4.34682 17.4433 4.95361C17.0905 5.56041 16.5833 6.06288 15.9731 6.40982C15.2065 6.15224 14.3779 6.14436 13.6066 6.3873C13.85 5.61466 13.8409 4.78456 13.5806 4.01745C13.9285 3.40593 14.4327 2.8978 15.0415 2.54503C15.6503 2.19226 16.3419 2.0075 17.0455 2.00966H17.9811Z" fill="#FBCC88"/>
  <path d="M16.4947 6.0512C16.331 6.18303 16.1573 6.30177 15.975 6.40633C15.2083 6.14875 14.3798 6.14087 13.6084 6.38381C13.6679 6.1952 13.7131 6.00236 13.7435 5.80694C14.6628 5.5875 15.6285 5.67324 16.4947 6.0512Z" fill="#F6B756"/>
  <path d="M18.1353 8.00356C17.4319 8.71035 17.0248 9.2058 16.1135 9.55054C15.4244 9.81352 14.6739 9.87168 13.9525 9.718C13.2311 9.56432 12.5694 9.20537 12.0474 8.68437L11.3821 8.01395C11.3648 7.99663 11.2972 8.07805 12.0474 7.32101C12.4026 6.96546 12.8245 6.6834 13.2888 6.49096C13.7531 6.29851 14.2508 6.19946 14.7535 6.19946C15.2561 6.19946 15.7538 6.29851 16.2182 6.49096C16.6825 6.6834 17.1044 6.96546 17.4596 7.32101L18.1353 8.00356Z" fill="#FBCC88"/>
  <path d="M18.1352 8.00528L17.4595 8.6809C16.7416 9.39813 15.7682 9.80101 14.7534 9.80101C13.7385 9.80101 12.7652 9.39813 12.0472 8.6809L11.3716 8.00528L11.7181 7.65881L12.0472 7.98796C12.7652 8.70519 13.7385 9.10807 14.7534 9.10807C15.7682 9.10807 16.7416 8.70519 17.4595 7.98796L17.7887 7.65881L18.1352 8.00528Z" fill="#F6B756"/>
  <path d="M14.1835 6.24691C13.988 6.27735 13.7952 6.32252 13.6066 6.38204C13.8489 5.611 13.8398 4.78291 13.5806 4.01738C13.6851 3.83469 13.8045 3.66087 13.9375 3.49768C14.3152 4.36324 14.4015 5.32805 14.1835 6.24691Z" fill="#F6B756"/>
  <path d="M12.6623 7.9412C11.9122 8.69304 11.9936 8.62548 11.9693 8.60815L11.3023 7.9412C10.7813 7.41953 10.4222 6.75828 10.2685 6.03717C10.1148 5.31607 10.173 4.5659 10.4361 3.87712C10.7826 2.97283 11.2746 2.56227 11.9832 1.85547L12.6589 2.53108C13.0146 2.88594 13.2969 3.30743 13.4897 3.77147C13.6824 4.2355 13.7818 4.73296 13.7821 5.23542C13.7824 5.73788 13.6837 6.23548 13.4915 6.69975C13.2994 7.16403 13.0176 7.58589 12.6623 7.9412Z" fill="#FBCC88"/>
  <path d="M12.6626 7.9429L11.9869 8.61851L11.3095 7.9429C10.9122 7.54671 10.6073 7.06769 10.4165 6.54004C10.2257 6.0124 10.1538 5.44915 10.2059 4.8905C10.348 6.44961 11.2454 7.18586 11.9869 7.92557C12.7717 7.14082 13.6276 6.42709 13.7679 4.8905C13.8198 5.44928 13.7476 6.01261 13.5565 6.54026C13.3654 7.06791 13.0602 7.54686 12.6626 7.9429Z" fill="#F6B756"/>
  <path d="M16.1137 9.55056C15.4246 9.81354 14.6741 9.87169 13.9527 9.71802C13.2313 9.56434 12.5697 9.20538 12.0476 8.68438L11.3823 8.01396C12.1305 7.79354 12.9243 7.77923 13.68 7.97255C14.4356 8.16587 15.125 8.55964 15.6754 9.11227L16.1137 9.55056Z" fill="#F6B756"/>
  <path d="M11.9762 8.60811L11.3646 8.62543L11.3092 7.94116C10.7881 7.41949 10.4291 6.75824 10.2754 6.03713C10.1217 5.31602 10.1799 4.56585 10.4429 3.87708L10.8812 4.31536C11.4319 4.86699 11.8241 5.55654 12.0167 6.31178C12.2094 7.06701 12.1954 7.86015 11.9762 8.60811Z" fill="#F6B756"/>
  <path d="M15.9834 10.1551C15.28 10.8619 14.8729 11.3574 13.9616 11.7021C13.2725 11.9651 12.522 12.0232 11.8006 11.8696C11.0792 11.7159 10.4176 11.3569 9.8955 10.8359L9.23023 10.169C9.2129 10.1517 9.14534 10.2331 9.8955 9.47604C10.2508 9.12049 10.6726 8.83843 11.1369 8.64599C11.6013 8.45354 12.099 8.35449 12.6016 8.35449C13.1043 8.35449 13.602 8.45354 14.0663 8.64599C14.5306 8.83843 14.9525 9.12049 15.3078 9.47604L15.9834 10.1551Z" fill="#FBCC88"/>
  <path d="M15.9833 10.1568L15.3077 10.8324C14.5897 11.5496 13.6164 11.9525 12.6015 11.9525C11.5867 11.9525 10.6133 11.5496 9.89539 10.8324L9.21973 10.1568L9.56622 9.8103L9.89539 10.1394C10.6133 10.8567 11.5867 11.2596 12.6015 11.2596C13.6164 11.2596 14.5897 10.8567 15.3077 10.1394L15.6368 9.8103L15.9833 10.1568Z" fill="#F6B756"/>
  <path d="M10.5104 10.0927C9.76022 10.8445 9.84165 10.777 9.81739 10.7596L9.15732 10.0927C8.63624 9.57102 8.2772 8.90977 8.1235 8.18866C7.9698 7.46755 8.028 6.71738 8.29108 6.02861C8.63757 5.12432 9.1296 4.71376 9.83818 4.00696L10.5138 4.68257C10.8691 5.03788 11.1509 5.45974 11.3431 5.92402C11.5352 6.3883 11.6339 6.88589 11.6336 7.38835C11.6333 7.89081 11.5339 8.38828 11.3412 8.85231C11.1485 9.31634 10.8661 9.73783 10.5104 10.0927Z" fill="#FBCC88"/>
  <path d="M10.5102 10.0944L9.83456 10.77L9.15716 10.0944C8.75985 9.6982 8.45492 9.21918 8.26416 8.69153C8.07339 8.16389 8.00148 7.60064 8.05357 7.04199C8.19563 8.6011 9.09306 9.33735 9.83456 10.0771C10.6194 9.29231 11.4752 8.57858 11.6155 7.04199C11.6674 7.60077 11.5952 8.1641 11.4042 8.69175C11.2131 9.2194 10.9078 9.69835 10.5102 10.0944Z" fill="#F6B756"/>
  <path d="M3.83336 15.4647L4.52635 16.1577L1.26354 19.4185C1.19498 19.487 1.10765 19.5336 1.01259 19.5525C0.917538 19.5714 0.819016 19.5617 0.729475 19.5246C0.639933 19.4875 0.563388 19.4247 0.509509 19.3442C0.45563 19.2636 0.426834 19.1689 0.426758 19.072C0.426758 18.7844 0.509509 18.769 3.83336 15.4647Z" fill="#D1A788"/>
  <path d="M1.78329 18.8987C1.28433 19.3977 1.18732 19.5622 0.917049 19.5622C0.787016 19.5622 0.662308 19.5106 0.570361 19.4186C0.478413 19.3267 0.426758 19.202 0.426758 19.072C0.426758 18.8104 0.563624 18.7255 1.0903 18.2058C1.0034 18.2987 0.956006 18.4217 0.958127 18.5489C0.960247 18.6761 1.01172 18.7974 1.10166 18.8874C1.19161 18.9773 1.31299 19.0288 1.44018 19.0309C1.56736 19.033 1.69039 18.9856 1.78329 18.8987Z" fill="#CBA07A"/>
  <path d="M13.9614 11.7021C13.2723 11.9651 12.5218 12.0232 11.8004 11.8695C11.0789 11.7158 10.4173 11.3569 9.89525 10.8359L9.22998 10.1689C9.97847 9.94895 10.7725 9.9352 11.5281 10.1291C12.2838 10.3231 12.973 10.7175 13.5231 11.2707L13.9614 11.7021Z" fill="#F6B756"/>
  <path d="M9.82432 10.7597L9.21276 10.777L9.15732 10.0928C8.63624 9.5711 8.2772 8.90985 8.1235 8.18874C7.9698 7.46764 8.028 6.71747 8.29108 6.02869L8.72939 6.46697C9.28006 7.01861 9.67224 7.70815 9.86487 8.46339C10.0575 9.21862 10.0435 10.0118 9.82432 10.7597Z" fill="#F6B756"/>
  <path d="M13.8438 12.2945C13.1404 13.0013 12.7333 13.4967 11.822 13.8415C11.1329 14.1045 10.3824 14.1626 9.66096 14.0089C8.93954 13.8553 8.27795 13.4963 7.75585 12.9753L7.09058 12.3101C7.07325 12.2928 7.00569 12.3742 7.75585 11.6172C8.11111 11.2616 8.53296 10.9795 8.9973 10.7871C9.46163 10.5947 9.95934 10.4956 10.462 10.4956C10.9646 10.4956 11.4623 10.5947 11.9267 10.7871C12.391 10.9795 12.8129 11.2616 13.1681 11.6172L13.8438 12.2945Z" fill="#FBCC88"/>
  <path d="M13.8437 12.2963L13.168 12.9719C12.4501 13.6891 11.4767 14.092 10.4619 14.092C9.44702 14.092 8.47368 13.6891 7.75574 12.9719L7.08008 12.2963L7.42657 11.9498L7.75574 12.279C8.47368 12.9962 9.44702 13.3991 10.4619 13.3991C11.4767 13.3991 12.4501 12.9962 13.168 12.279L13.4972 11.9498L13.8437 12.2963Z" fill="#F6B756"/>
  <path d="M8.37132 12.2322C7.62115 12.9841 7.70258 12.9252 7.67832 12.8992L7.01132 12.2322C6.49024 11.7105 6.13121 11.0493 5.97751 10.3282C5.82381 9.60708 5.882 8.85691 6.14508 8.16813C6.49158 7.26385 6.9836 6.85328 7.69218 6.14648L8.36785 6.8221C8.72361 7.17696 9.00592 7.59845 9.19865 8.06248C9.39138 8.52651 9.49075 9.02398 9.49107 9.52644C9.49139 10.0289 9.39266 10.5265 9.20053 10.9908C9.00839 11.455 8.72662 11.8769 8.37132 12.2322Z" fill="#FBCC88"/>
  <path d="M8.37138 12.2339L7.69051 12.9095L7.01311 12.2339C6.61581 11.8377 6.31088 11.3587 6.12011 10.8311C5.92934 10.3034 5.85744 9.74016 5.90953 9.18152C6.05159 10.7406 6.94901 11.4769 7.69051 12.2166C8.47533 11.4318 9.33117 10.7181 9.4715 9.18152C9.52404 9.7399 9.45268 10.303 9.26251 10.8306C9.07235 11.3583 8.76807 11.8374 8.37138 12.2339Z" fill="#F6B756"/>
  <path d="M11.8217 13.8415C11.1326 14.1045 10.3821 14.1626 9.66072 14.009C8.9393 13.8553 8.2777 13.4963 7.7556 12.9753L7.09033 12.3101C7.83851 12.0897 8.63234 12.0754 9.38798 12.2687C10.1436 12.462 10.833 12.8558 11.3834 13.4084L11.8217 13.8415Z" fill="#F6B756"/>
  <path d="M7.69004 12.8991L7.07848 12.9164L7.02304 12.2235C6.50196 11.7018 6.14293 11.0406 5.98923 10.3195C5.83553 9.59837 5.89372 8.8482 6.1568 8.15942L6.59512 8.59771C7.1473 9.15016 7.5404 9.84119 7.73308 10.5981C7.92576 11.3551 7.91089 12.1499 7.69004 12.8991Z" fill="#F6B756"/>
  <path d="M11.6749 14.46C10.9715 15.1668 10.5644 15.6622 9.65308 16.007C8.96395 16.2699 8.21348 16.3281 7.49207 16.1744C6.77065 16.0207 6.10905 15.6618 5.58695 15.1408L4.91821 14.4704C4.90089 14.453 4.83332 14.5345 5.58349 13.7774C5.93874 13.4219 6.3606 13.1398 6.82493 12.9474C7.28927 12.7549 7.78698 12.6559 8.28962 12.6559C8.79226 12.6559 9.28997 12.7549 9.7543 12.9474C10.2186 13.1398 10.6405 13.4219 10.9957 13.7774L11.6749 14.46Z" fill="#FBCC88"/>
  <path d="M11.6751 14.4617L10.9995 15.1373C10.2815 15.8546 9.30818 16.2574 8.29332 16.2574C7.27847 16.2574 6.30513 15.8546 5.58719 15.1373L4.91846 14.4617L5.26495 14.1152L5.59412 14.4444C6.31206 15.1616 7.2854 15.5645 8.30026 15.5645C9.31511 15.5645 10.2885 15.1616 11.0064 14.4444L11.3356 14.1152L11.6751 14.4617Z" fill="#F6B756"/>
  <path d="M6.2053 14.3976C5.45514 15.1495 5.53656 15.0906 5.51231 15.0646L4.84531 14.3976C4.32423 13.876 3.96519 13.2147 3.81149 12.4936C3.65779 11.7725 3.71599 11.0223 3.97907 10.3335C4.32556 9.42925 4.81759 9.01869 5.52617 8.31189L6.20184 8.9875C6.55759 9.34236 6.83991 9.76385 7.03264 10.2279C7.22537 10.6919 7.32473 11.1894 7.32506 11.6918C7.32538 12.1943 7.22665 12.6919 7.03451 13.1562C6.84238 13.6205 6.5606 14.0423 6.2053 14.3976Z" fill="#FBCC88"/>
  <path d="M6.20505 14.3993L5.52938 15.0819L4.85198 14.4063C4.45467 14.0101 4.14975 13.5311 3.95898 13.0034C3.76821 12.4758 3.6963 11.9125 3.74839 11.3539C3.89046 12.913 4.78788 13.6492 5.52938 14.389C6.31419 13.6042 7.17004 12.8905 7.31037 11.3539C7.36119 11.9115 7.2885 12.4735 7.09745 12.9999C6.90641 13.5263 6.60172 14.0041 6.20505 14.3993Z" fill="#F6B756"/>
  <path d="M9.65679 16.007C8.96766 16.27 8.21719 16.3281 7.49577 16.1744C6.77435 16.0208 6.11275 15.6618 5.59066 15.1408L4.91846 14.4704C5.66664 14.25 6.46047 14.2357 7.21611 14.429C7.97175 14.6223 8.66116 15.0161 9.21154 15.5687L9.65679 16.007Z" fill="#F6B756"/>
  <path d="M5.51915 15.0645L4.90758 15.0819L4.85214 14.3889C4.33106 13.8672 3.97203 13.206 3.81833 12.4849C3.66463 11.7638 3.72282 11.0136 3.9859 10.3248L4.42422 10.7631C4.9764 11.3156 5.36951 12.0066 5.56218 12.7635C5.75486 13.5205 5.73999 14.3153 5.51915 15.0645Z" fill="#F6B756"/>
  <path d="M3.43515 17.2957L2.75903 16.6196L3.43515 15.9436C3.79019 15.5876 4.21192 15.3051 4.67622 15.1121C5.14052 14.9192 5.63829 14.8197 6.14108 14.8192C6.64387 14.8188 7.14182 14.9174 7.60647 15.1095C8.07112 15.3016 8.49335 15.5833 8.84904 15.9387L9.52517 16.6147L8.84904 17.2908C8.494 17.6468 8.07227 17.9293 7.60797 18.1222C7.14367 18.3152 6.6459 18.4147 6.14311 18.4151C5.64032 18.4156 5.14237 18.317 4.67772 18.1249C4.21307 17.9328 3.79084 17.651 3.43515 17.2957Z" fill="#FBCC88"/>
  <path d="M9.52678 16.6133L8.85111 17.2889C8.13318 18.0062 7.15984 18.409 6.14498 18.409C5.13013 18.409 4.15679 18.0062 3.43885 17.2889L2.76318 16.6133L3.10968 16.2668L3.43885 16.596C4.15679 17.3132 5.13013 17.7161 6.14498 17.7161C7.15984 17.7161 8.13318 17.3132 8.85111 16.596L9.18028 16.2668L9.52678 16.6133Z" fill="#F6B756"/>
  <path d="M4.05674 16.5505L3.38061 17.2266L2.70449 16.5505C1.98763 15.833 1.58496 14.8604 1.58496 13.8462C1.58496 12.832 1.98763 11.8593 2.70449 11.1419L3.38061 10.4658L4.05673 11.1419C4.77359 11.8593 5.17626 12.832 5.17626 13.8462C5.17626 14.8604 4.77359 15.833 4.05674 16.5505Z" fill="#FBCC88"/>
  <path d="M4.05222 16.5509L3.37655 17.2265L2.69915 16.5509C2.30184 16.1547 1.99692 15.6757 1.80615 15.1481C1.61538 14.6204 1.54347 14.0572 1.59556 13.4985C1.73762 15.0576 2.63505 15.7939 3.37655 16.5336C4.16136 15.7489 5.01894 15.0351 5.15754 13.4985C5.2094 14.0573 5.13722 14.6206 4.94615 15.1483C4.75508 15.6759 4.44983 16.1549 4.05222 16.5509Z" fill="#F6B756"/>
</svg>