<svg xmlns="http://www.w3.org/2000/svg" width="20" height="20" viewBox="0 0 20 20" fill="none">
  <g clip-path="url(#clip0_79_307)">
    <path d="M11.5625 10C11.5623 10.8126 11.3756 11.6144 11.0169 12.3436C10.6581 13.0728 10.1369 13.7099 9.49329 14.206C8.84966 14.7022 8.1008 15.044 7.30432 15.2053C6.50784 15.3666 5.68498 15.343 4.89905 15.1363C4.11312 14.9297 3.38508 14.5455 2.77094 14.0133C2.1568 13.4811 1.67293 12.8151 1.35658 12.0666C1.04022 11.318 0.89981 10.5069 0.946142 9.69557C0.992473 8.88425 1.22432 8.09437 1.62383 7.38672C2.17235 6.40836 2.52974 5.33458 2.67695 4.22265L2.70273 4.03398C2.81968 3.17619 3.24348 2.38983 3.89568 1.82052C4.54788 1.2512 5.38428 0.9375 6.25 0.9375C7.11573 0.9375 7.95212 1.2512 8.60432 1.82052C9.25652 2.38983 9.68032 3.17619 9.79727 4.03398L9.82305 4.22265C9.89543 4.75148 10.0157 5.27263 10.1824 5.77969C10.3722 6.35598 10.6154 6.91334 10.9086 7.44453C11.3389 8.22744 11.5639 9.10661 11.5625 10Z" fill="#66934C"/>
    <path d="M11.5624 9.99998C11.5644 11.0602 11.2486 12.0967 10.6556 12.9756C10.0627 13.8545 9.21987 14.5355 8.23603 14.9306C7.25218 15.3257 6.17248 15.4168 5.13634 15.1922C4.1002 14.9675 3.15519 14.4374 2.42334 13.6703C6.17217 12.5625 8.74209 10.0816 10.1823 5.77966C10.3721 6.35596 10.6153 6.91332 10.9085 7.44451C11.3388 8.22742 11.5638 9.10659 11.5624 9.99998Z" fill="#638F43"/>
    <path d="M3.54685 6.99291L2.96802 6.7572C3.04856 6.55939 3.1236 6.35576 3.19103 6.15173L3.78442 6.34806C3.71255 6.56529 3.63278 6.7822 3.54685 6.99291Z" fill="#74A15A"/>
    <path d="M2.08918 11.3472C1.94692 10.9123 1.87463 10.4576 1.875 9.99996C1.87467 9.24615 2.06919 8.50506 2.43969 7.84859C2.52953 7.68984 2.61602 7.52617 2.6966 7.36218L3.25758 7.63781C3.17164 7.81273 3.07942 7.98726 2.98352 8.1566C2.66617 8.71911 2.49961 9.3541 2.5 9.99996C2.49965 10.3915 2.56146 10.7806 2.68313 11.1527L2.08918 11.3472Z" fill="#74A15A"/>
    <path d="M19.0625 6.5625C18.4879 6.56278 17.9189 6.4498 17.3879 6.23004C16.857 6.01027 16.3746 5.68802 15.9683 5.28171C15.562 4.8754 15.2397 4.39299 15.02 3.86207C14.8002 3.33114 14.6872 2.76211 14.6875 2.1875C15.2622 2.18706 15.8313 2.29993 16.3623 2.51964C16.8933 2.73935 17.3757 3.06159 17.7821 3.46794C18.1884 3.87428 18.5107 4.35675 18.7304 4.88774C18.9501 5.41874 19.0629 5.98784 19.0625 6.5625Z" fill="#79AD54"/>
    <path d="M19.0625 6.56255C18.252 6.56281 17.4574 6.33789 16.7673 5.91286C16.0772 5.48784 15.5188 4.87943 15.1543 4.15552C16.2919 4.59518 17.4978 4.83235 18.7172 4.8563C18.9458 5.39606 19.0633 5.97637 19.0625 6.56255Z" fill="#72A64E"/>
    <path d="M14.0626 4.94794H13.4376V4.70209C13.4199 4.49115 13.3507 2.88904 15.0844 1.0365L15.5407 1.46353C14.6976 2.36443 14.3403 3.18462 14.1889 3.71404C14.0257 4.28513 14.0604 4.65013 14.0607 4.65376C14.062 4.66497 14.0626 4.67624 14.0626 4.68751V4.94794Z" fill="#79AD54"/>
    <path d="M17.323 7.97266L17.2972 7.78383C17.1803 6.92607 16.7565 6.13975 16.1043 5.57046C15.4521 5.00118 14.6157 4.6875 13.75 4.6875C12.8843 4.6875 12.0479 5.00118 11.3957 5.57046C10.7436 6.13975 10.3197 6.92607 10.2028 7.78383L10.177 7.9727C10.0299 9.08466 9.67253 10.1585 9.12387 11.1368C8.67261 11.9337 8.4361 12.8342 8.43751 13.75C8.43751 16.6814 10.8604 19.0849 13.7917 19.0625C14.7108 19.0551 15.6123 18.8094 16.4081 18.3494C17.2038 17.8894 17.8667 17.2308 18.3319 16.4381C18.797 15.6453 19.0486 14.7455 19.062 13.8264C19.0754 12.9074 18.8502 12.0005 18.4084 11.1945C17.8575 10.1925 17.4775 9.10566 17.323 7.97266Z" fill="#9BBC50"/>
    <path d="M13.7509 17.8125C13.0411 17.8124 12.3436 17.6264 11.728 17.273C11.1124 16.9196 10.6001 16.4112 10.2422 15.7982C9.88417 15.1853 9.69298 14.4893 9.68762 13.7795C9.68225 13.0697 9.86291 12.3708 10.2116 11.7525C10.8394 10.6366 11.2481 9.41097 11.4155 8.14157L11.4413 7.95263C11.5174 7.39435 11.7933 6.88258 12.2177 6.51206C12.6422 6.14154 13.1866 5.93738 13.75 5.93738C14.3134 5.93738 14.8578 6.14154 15.2823 6.51206C15.7067 6.88258 15.9826 7.39435 16.0587 7.95263L16.0844 8.14145C16.2554 9.39517 16.6687 10.625 17.3131 11.7968C17.6508 12.4132 17.8229 13.1066 17.8125 13.8093C17.8021 14.5121 17.6097 15.2001 17.2539 15.8062C16.8981 16.4123 16.3912 16.9158 15.7827 17.2674C15.1742 17.6191 14.4849 17.8069 13.7821 17.8125H13.7509Z" fill="#FEDB6D"/>
    <path d="M17.1875 14.3751C17.1875 15.044 16.9491 15.6909 16.5151 16.1999C16.081 16.7089 15.4798 17.0465 14.8193 17.1522C14.1588 17.2579 13.4823 17.1247 12.9111 16.7765C12.34 16.4284 11.9116 15.8881 11.7029 15.2526C11.4942 14.6171 11.5188 13.928 11.7724 13.309C12.0259 12.69 12.4917 12.1816 13.0863 11.8751C13.6808 11.5686 14.3651 11.4841 15.0164 11.6366C15.6677 11.7892 16.2433 12.1688 16.6398 12.7075C16.9956 13.1907 17.1875 13.775 17.1875 14.3751Z" fill="#F7CF59"/>
    <path d="M16.5625 13.7501C16.5625 14.419 16.3241 15.0659 15.8901 15.5749C15.456 16.0839 14.8548 16.4215 14.1943 16.5272C13.5338 16.6329 12.8573 16.4997 12.2861 16.1515C11.715 15.8034 11.2866 15.2631 11.0779 14.6276C10.8692 13.9921 10.8938 13.303 11.1474 12.684C11.4009 12.065 11.8667 11.5566 12.4613 11.2501C13.0558 10.9436 13.7401 10.8591 14.3914 11.0116C15.0427 11.1642 15.6183 11.5438 16.0148 12.0825C16.3706 12.5657 16.5625 13.15 16.5625 13.7501Z" fill="#92563A"/>
    <path d="M16.5625 13.75C16.5625 14.3026 16.3997 14.843 16.0945 15.3037C15.7892 15.7644 15.355 16.1249 14.846 16.3402C14.337 16.5555 13.7759 16.6161 13.2327 16.5144C12.6895 16.4127 12.1883 16.1532 11.7917 15.7683C13.5066 14.9441 14.9121 13.7355 16.0148 12.0824C16.3713 12.5652 16.5633 13.1498 16.5625 13.75Z" fill="#875036"/>
  </g>
  <defs>
    <clipPath id="clip0_79_307">
      <rect width="20" height="20" fill="white"/>
    </clipPath>
  </defs>
</svg>