<svg width="35" height="35" viewBox="0 0 35 35" fill="none" xmlns="http://www.w3.org/2000/svg">
<g clip-path="url(#clip0_7_454)">
<path d="M17.143 1.89256C15.8811 3.9492 12.9673 8.67351 10.34 12.7508L9.59965 11.0744C9.34775 10.5042 8.55213 10.4698 8.25259 11.0165C7.2101 12.9192 5.44352 16.758 5.26677 21.1831C4.97893 28.3891 10.69 34.4952 17.9015 34.4286C24.7678 34.3652 30.3144 28.7795 30.3144 21.8982C30.3144 17.1753 28.4133 13.0228 27.315 11.0178C27.0152 10.4705 26.2193 10.5035 25.9672 11.0742L25.2268 12.7505C22.5995 8.67328 19.6856 3.94897 18.4238 1.89232C18.1302 1.41427 17.4363 1.41427 17.143 1.89256Z" fill="#FFD645"/>
<path d="M25.967 11.0744L25.2266 12.7508C24.7291 11.9787 24.2213 11.1835 23.7165 10.3876C23.179 13.6672 21.9895 17.3005 20.1523 20.9183C17.5979 25.9482 14.3068 29.9659 11.021 32.4135C12.9464 33.6567 15.2084 34.4062 17.6655 34.4288C24.8766 34.4952 30.6722 28.6242 30.3 21.1865C30.1239 16.76 28.3567 12.9197 27.314 11.0166C27.0145 10.4699 26.2188 10.5043 25.967 11.0744Z" fill="#FFD15B"/>
<path d="M17.1429 13.9206C16.2451 15.3807 14.5485 18.1223 13.006 20.5163L12.7563 19.9511C12.5001 19.371 11.6827 19.3477 11.3981 19.9144C10.7518 21.2015 9.90358 23.306 9.76136 25.6984C9.48066 30.4203 13.1689 34.4952 17.8987 34.4285C22.287 34.3666 25.8252 30.79 25.8252 26.3871C25.8252 23.7131 24.8756 21.3241 24.1679 19.9147C23.8833 19.3478 23.0659 19.3708 22.8095 19.9511L22.5598 20.5163C21.0173 18.1223 19.3207 15.3809 18.4229 13.9206C18.1297 13.4431 17.4365 13.4431 17.1429 13.9206Z" fill="#FFBB32"/>
<path d="M25.805 25.6996C25.663 23.3065 24.8146 21.2014 24.1681 19.9142C23.8835 19.3475 23.0661 19.3708 22.8099 19.9509L22.5602 20.5161C22.1384 19.8613 21.7049 19.1806 21.2795 18.5072C20.9352 19.3089 20.5606 20.1138 20.1522 20.9181C17.8118 25.5267 14.8665 29.2715 11.8562 31.7544C13.3374 33.3898 15.4464 34.4426 17.8298 34.4291C22.4962 34.4026 26.0813 30.3578 25.805 25.6996Z" fill="#FEA713"/>
</g>
<defs>
<clipPath id="clip0_7_454">
<rect width="34.3275" height="34.3275" fill="white" transform="translate(0.62085 0.62085)"/>
</clipPath>
</defs>
</svg>