<svg xmlns="http://www.w3.org/2000/svg" width="26" height="26" viewBox="0 0 26 26" fill="none">
  <path d="M12.9998 5.11816C15.4849 2.8092 18.2644 2.48892 20.4939 3.50781C22.8157 4.56911 24.4333 7.03988 24.4333 9.89844C24.4333 12.7196 23.2605 14.8743 21.7068 16.624C20.1735 18.3506 18.221 19.7297 16.6628 20.958C16.1061 21.3969 15.5221 21.8542 14.9333 22.1982C14.3447 22.5422 13.6937 22.8086 12.9998 22.8086C12.3059 22.8085 11.6557 22.5421 11.0671 22.1982C10.4784 21.8542 9.89443 21.3969 9.33765 20.958C7.7795 19.7297 5.82702 18.3506 4.2937 16.624C2.73988 14.8743 1.56714 12.7197 1.56714 9.89844C1.56715 7.03993 3.18388 4.56914 5.50562 3.50781C7.73502 2.48874 10.5145 2.80935 12.9998 5.11816Z" stroke="#A5A3A7" stroke-width="1.2"/>
</svg>