<svg preserveAspectRatio="none" width="100%" height="100%" overflow="visible" style="display: block;" viewBox="0 0 26 26" fill="none" xmlns="http://www.w3.org/2000/svg">
<g id="heart-2 1">
<path id="Vector" d="M12.9997 5.11822C15.4848 2.80926 18.2644 2.48898 20.4938 3.50787C22.8156 4.56917 24.4333 7.03993 24.4333 9.8985C24.4333 12.7196 23.2604 14.8744 21.7067 16.6241C20.1734 18.3507 18.2209 19.7297 16.6628 20.9581C16.106 21.397 15.522 21.8543 14.9333 22.1983C14.3446 22.5423 13.6937 22.8087 12.9997 22.8087C12.3058 22.8086 11.6556 22.5422 11.0671 22.1983C10.4783 21.8543 9.89435 21.397 9.33756 20.9581C7.77942 19.7297 5.82694 18.3507 4.29362 16.6241C2.7398 14.8744 1.56706 12.7197 1.56706 9.8985C1.56707 7.03998 3.1838 4.5692 5.50553 3.50787C7.73494 2.4888 10.5144 2.80941 12.9997 5.11822Z" stroke="var(--stroke-0, #A5A3A7)" stroke-width="1.2"/>
</g>
</svg>
