<svg xmlns="http://www.w3.org/2000/svg" width="24" height="24" viewBox="0 0 24 24" fill="none">
  <path fill-rule="evenodd" clip-rule="evenodd" d="M21.8921 6.84124L15.6084 1.64578C13.4917 -0.104257 10.5081 -0.104257 8.39145 1.64578L2.10772 6.84124C0.975607 7.77728 0.333252 9.19648 0.333252 10.6773V18.7793C0.333252 21.4103 2.35643 23.6666 4.99992 23.6666H7.33325C8.62192 23.6666 9.66659 22.622 9.66659 21.3333V17.539C9.66659 16.0603 10.7774 14.9851 11.9999 14.9851C13.2225 14.9851 14.3333 16.0603 14.3333 17.539V21.3333C14.3333 22.622 15.3779 23.6666 16.6666 23.6666H18.9999C21.6435 23.6666 23.6666 21.4103 23.6666 18.7793V10.6773C23.6666 9.19649 23.0242 7.77728 21.8921 6.84124Z" fill="black"/>
</svg>