<svg preserveAspectRatio="none" width="100%" height="100%" overflow="visible" style="display: block;" viewBox="0 0 28 28" fill="none" xmlns="http://www.w3.org/2000/svg">
<g id="home 1">
<path id="Vector" fill-rule="evenodd" clip-rule="evenodd" d="M23.8922 8.84131L17.6085 3.64586C15.4918 1.89582 12.5082 1.89582 10.3915 3.64586L4.1078 8.84131C2.97569 9.77735 2.33333 11.1966 2.33333 12.6773V20.7794C2.33333 23.4103 4.35651 25.6667 7 25.6667H9.33333C10.622 25.6667 11.6667 24.622 11.6667 23.3333V19.5391C11.6667 18.0604 12.7775 16.9851 14 16.9851C15.2226 16.9851 16.3333 18.0604 16.3333 19.5391V23.3333C16.3333 24.622 17.378 25.6667 18.6667 25.6667H21C23.6436 25.6667 25.6667 23.4103 25.6667 20.7794V12.6773C25.6667 11.1966 25.0243 9.77735 23.8922 8.84131Z" fill="var(--fill-0, black)"/>
</g>
</svg>
