<svg preserveAspectRatio="none" width="100%" height="100%" overflow="visible" style="display: block;" viewBox="0 0 21 25" fill="none" xmlns="http://www.w3.org/2000/svg">
<g id="Avatar">
<path id="Vector" d="M18.0516 25H2.71875C1.21875 24.9953 0.0046875 23.7812 0 22.2812V21.0812C0 18.1469 1.23281 15.3484 3.40312 13.375C4.30781 12.5547 5.65313 12.4422 6.67969 13.1031C7.75312 13.7922 9.03281 14.1578 10.3875 14.1578C11.7422 14.1578 13.0219 13.7922 14.0953 13.1031C15.1219 12.4422 16.4672 12.5547 17.3719 13.375C19.5422 15.3484 20.7797 18.1469 20.775 21.0812V22.2812C20.7703 23.7859 19.5516 25 18.0516 25ZM5.21719 13.6094C4.77656 13.6094 4.35469 13.7734 4.03125 14.0687C2.05781 15.8641 0.932812 18.4141 0.932812 21.0812V22.2812C0.9375 23.2656 1.72969 24.0578 2.71406 24.0625H18.0469C19.0312 24.0625 19.8281 23.2656 19.8281 22.2812V21.0812C19.8281 18.4141 18.7031 15.8687 16.7297 14.0687C16.1391 13.5344 15.2625 13.4594 14.5922 13.8906C13.3688 14.6781 11.9109 15.0953 10.3781 15.0953C8.84531 15.0953 7.3875 14.6781 6.16406 13.8906C5.8875 13.7078 5.55469 13.6094 5.21719 13.6094Z" fill="var(--fill-0, #A5A3A7)"/>
<path id="Vector_2" d="M10.3875 12.0938C7.05 12.0891 4.34531 9.38437 4.34063 6.04688C4.34063 2.71406 7.05 0 10.3875 0C13.725 0.0046875 16.4297 2.70938 16.4344 6.04688C16.4297 9.37969 13.7203 12.0938 10.3875 12.0938ZM10.3875 0.942188C7.56563 0.942188 5.27813 3.22969 5.27813 6.05156C5.27813 8.87344 7.56563 11.1609 10.3875 11.1609C13.2094 11.1609 15.4969 8.87344 15.4969 6.05156C15.4922 3.22969 13.2094 0.942188 10.3875 0.942188Z" fill="var(--fill-0, #A5A3A7)"/>
</g>
</svg>
