<svg xmlns="http://www.w3.org/2000/svg" width="22" height="25" viewBox="0 0 22 25" fill="none">
  <path d="M18.6639 25.0001H3.33105C1.83105 24.9954 0.616992 23.7813 0.612305 22.2813V21.0813C0.612305 18.1469 1.84512 15.3485 4.01543 13.3751C4.92012 12.5547 6.26543 12.4422 7.29199 13.1032C8.36543 13.7922 9.64512 14.1579 10.9998 14.1579C12.3545 14.1579 13.6342 13.7922 14.7076 13.1032C15.7342 12.4422 17.0795 12.5547 17.9842 13.3751C20.1545 15.3485 21.392 18.1469 21.3873 21.0813V22.2813C21.3826 23.786 20.1639 25.0001 18.6639 25.0001ZM5.82949 13.6094C5.38887 13.6094 4.96699 13.7735 4.64355 14.0688C2.67012 15.8641 1.54512 18.4141 1.54512 21.0813V22.2813C1.5498 23.2657 2.34199 24.0579 3.32637 24.0626H18.6592C19.6436 24.0626 20.4404 23.2657 20.4404 22.2813V21.0813C20.4404 18.4141 19.3154 15.8688 17.342 14.0688C16.7514 13.5344 15.8748 13.4594 15.2045 13.8907C13.9811 14.6782 12.5232 15.0954 10.9904 15.0954C9.45762 15.0954 7.9998 14.6782 6.77637 13.8907C6.4998 13.7079 6.16699 13.6094 5.82949 13.6094Z" fill="#A5A3A7"/>
  <path d="M10.9998 12.0938C7.66226 12.0891 4.95757 9.38437 4.95288 6.04688C4.95288 2.71406 7.66226 0 10.9998 0C14.3373 0.0046875 17.0419 2.70938 17.0466 6.04688C17.0419 9.37969 14.3326 12.0938 10.9998 12.0938ZM10.9998 0.942188C8.17788 0.942188 5.89038 3.22969 5.89038 6.05156C5.89038 8.87344 8.17788 11.1609 10.9998 11.1609C13.8216 11.1609 16.1091 8.87344 16.1091 6.05156C16.1044 3.22969 13.8216 0.942188 10.9998 0.942188Z" fill="#A5A3A7"/>
</svg>