<svg xmlns="http://www.w3.org/2000/svg" width="20" height="20" viewBox="0 0 20 20" fill="none">
  <path d="M14.375 2.5H4.375C2.30395 2.5 0.625 4.17891 0.625 6.25V8.75C0.625 10.8211 2.30395 12.5 4.375 12.5H4.69668C5.69125 12.5 6.64508 12.8951 7.34832 13.5984L10.1516 16.4017C10.8549 17.1049 11.8088 17.5 12.8033 17.5H14.375C17.1364 17.5 19.375 15.2614 19.375 12.5V7.5C19.375 4.73859 17.1364 2.5 14.375 2.5Z" fill="#A55023"/>
  <path d="M0.625 6.25V6.875C0.625 8.94605 2.30395 10.625 4.375 10.625H4.69668C5.69125 10.625 6.64508 11.0201 7.34832 11.7234L10.1516 14.5267C10.8549 15.2299 11.8088 15.625 12.8033 15.625H14.375C17.1364 15.625 19.375 13.3864 19.375 10.625V7.5C19.375 4.73859 17.1364 2.5 14.375 2.5H4.375C2.30395 2.5 0.625 4.17895 0.625 6.25Z" fill="#FAB991"/>
  <path d="M15.5727 3.29184C15.192 3.1832 14.7902 3.125 14.375 3.125H8.69643C8.41804 3.125 8.27858 3.4616 8.47546 3.65848L10.8073 5.99039C11.1235 6.30656 11.5842 6.42863 12.0162 6.31324C12.1705 6.27199 12.3327 6.25 12.5 6.25C12.6674 6.25 12.8296 6.27199 12.9839 6.3132C13.4158 6.42859 13.8765 6.30652 14.1927 5.99035L15.847 4.33609C16.1853 3.99781 16.0328 3.42309 15.5727 3.29184Z" fill="#F04B37"/>
  <path d="M17.0933 13.1603L14.1993 10.2662C13.8838 9.95078 13.4236 9.81687 12.9933 9.93426C12.7993 9.98715 12.5929 10.0096 12.3792 9.99621C11.4446 9.93742 10.6877 9.18062 10.6288 8.24605C10.6154 8.03234 10.6379 7.82582 10.6907 7.63188C10.8081 7.20141 10.6741 6.74113 10.3587 6.42563L7.60723 3.67418C7.25559 3.32254 6.77867 3.125 6.28141 3.125H4.375C2.6491 3.125 1.25 4.5241 1.25 6.25V6.875C1.25 8.6009 2.6491 10 4.375 10H4.69668C5.86531 10 6.96395 10.4551 7.79027 11.2814L10.5936 14.0847C11.1838 14.675 11.9686 15 12.8033 15H14.375C15.3734 15 16.2948 14.6637 17.0318 14.0986C17.3316 13.8687 17.3604 13.4273 17.0933 13.1603Z" fill="#F04B37"/>
  <path d="M17.5074 4.44908C17.2654 4.20076 16.8657 4.20127 16.6205 4.44642L14.6346 6.43232C14.3184 6.74849 14.1964 7.20916 14.3117 7.64115C14.353 7.79548 14.3749 7.95767 14.3749 8.12502C14.3749 8.29236 14.353 8.45455 14.3117 8.60884C14.1964 9.04084 14.3184 9.5015 14.6346 9.81771L17.3739 12.557C17.6872 12.8704 18.2151 12.7658 18.3914 12.3591C18.622 11.8272 18.7499 11.2408 18.7499 10.625V7.50002C18.7499 6.31451 18.2758 5.23775 17.5074 4.44908Z" fill="#F04B37"/>
  <path d="M12.5 9.375C13.1904 9.375 13.75 8.81536 13.75 8.125C13.75 7.43464 13.1904 6.875 12.5 6.875C11.8096 6.875 11.25 7.43464 11.25 8.125C11.25 8.81536 11.8096 9.375 12.5 9.375Z" fill="#F04B37"/>
</svg>