<svg xmlns="http://www.w3.org/2000/svg" width="20" height="20" viewBox="0 0 20 20" fill="none">
  <path d="M15.1223 18.1644L15.0314 19.2439C14.961 19.6253 14.6282 19.9022 14.2399 19.9022L13.2059 20H5.55063C5.1623 20 4.82949 19.7232 4.75906 19.3417L4.41699 17.495C4.6057 17.9264 5.24934 17.9258 5.73707 17.9258L14.4519 17.8122C14.9393 17.8122 15.1223 18.1644 15.1223 18.1644Z" fill="#EFEFEF"/>
  <path d="M17.1623 6.41004C16.7092 6.8059 16.2477 12.033 15.7245 14.858L15.2814 17.335C15.0927 17.7659 14.9647 18.2181 14.4774 18.2181H5.52284C5.03511 18.2181 4.60573 17.9264 4.41702 17.495L3.94499 14.9465C3.39651 11.9839 3.01702 8.99359 2.80737 5.99078C4.47874 4.63195 7.73733 4.75922 9.88624 5.94715C9.95144 5.98336 10.0174 6.01836 10.0834 6.05219C11.215 6.63648 12.2724 6.8893 13.5058 6.8893C14.7529 6.8893 15.9148 6.80976 17.1587 6.41211C17.1599 6.41125 17.1611 6.41082 17.1623 6.41004Z" fill="#B5DBFD"/>
  <path d="M15.5827 17.4957L15.2411 19.3416C15.1707 19.7231 14.8378 19.9999 14.4495 19.9999H13.2058V18.2181L13.3902 18.2148L14.5201 18.0848C15.0074 18.0848 15.0825 17.8917 15.5827 17.4957Z" fill="#E8EDF2"/>
  <path d="M17.1622 6.41011C17.161 6.41093 17.1598 6.41132 17.1586 6.4121C16.0258 7.00206 14.7807 7.29863 13.5336 7.29863C12.3002 7.29863 11.0648 7.00847 9.93321 6.42417C9.8672 6.39038 9.80122 6.35535 9.73603 6.31913C9.57345 6.22941 9.40845 6.1457 9.24146 6.06804C11.3159 4.24566 15.4745 3.95023 17.1622 6.41011Z" fill="#8DCAFC"/>
  <path d="M17.0881 0.586953C17.0881 2.5809 17.0311 4.54102 17.1621 6.41004C14.8873 4.93359 11.6917 4.82613 9.24141 6.06797C7.20117 5.12109 4.8575 5.09855 2.80719 5.9907C2.67809 4.14324 2.61328 2.29094 2.61328 0.437422C2.61328 0.31668 2.66238 0.207227 2.74125 0.127969C2.82051 0.0491016 2.92957 0 3.0507 0H16.0748L16.6507 0.149531C16.8925 0.149531 17.0881 0.345508 17.0881 0.586953Z" fill="#EFEFEF"/>
  <path d="M17.1621 6.41003C16.9472 9.27199 16.5778 12.1215 16.0546 14.9464L15.5826 17.4957C15.3939 17.9267 14.9645 18.2181 14.4772 18.2181H13.1895C13.6768 18.2181 14.1062 17.9268 14.2949 17.4957L14.7669 14.9464C15.2566 12.301 15.612 9.63375 15.8313 6.95488C16.2773 6.49531 16.6506 6.40999 17.1585 6.41203C17.1597 6.41124 17.1609 6.41082 17.1621 6.41003Z" fill="#8DCAFC"/>
  <path d="M17.1621 6.41004C17.1609 6.41086 17.1597 6.41125 17.1585 6.41203C16.7303 6.63496 16.2856 6.81648 15.8313 6.95488C15.8466 6.7734 15.8607 6.59191 15.8743 6.41C15.8884 6.22328 15.9017 6.00801 15.9146 5.76976C16.5517 5.5725 17.1193 5.50973 17.1621 6.41004Z" fill="#64B9FC"/>
  <path d="M17.3868 0.437422C17.3868 2.43137 17.312 4.42375 17.1623 6.41004C16.7707 6.15609 16.3523 5.94242 15.9148 5.7698C15.9933 4.30582 16.0464 1.96941 16.075 0H16.9494C17.1912 0 17.3868 0.195977 17.3868 0.437422Z" fill="#E8EDF2"/>
  <path d="M9.06195 16.7505C9.63982 16.7505 10.1083 16.282 10.1083 15.7042C10.1083 15.1263 9.63982 14.6578 9.06195 14.6578C8.48408 14.6578 8.01562 15.1263 8.01562 15.7042C8.01562 16.282 8.48408 16.7505 9.06195 16.7505Z" fill="#8DCAFC"/>
  <path d="M12.721 13.1888C13.1544 13.1888 13.5057 12.8375 13.5057 12.4041C13.5057 11.9707 13.1544 11.6194 12.721 11.6194C12.2876 11.6194 11.9363 11.9707 11.9363 12.4041C11.9363 12.8375 12.2876 13.1888 12.721 13.1888Z" fill="#8DCAFC"/>
  <path d="M8.97692 10.9604C9.3103 10.9604 9.58056 10.6902 9.58056 10.3568C9.58056 10.0234 9.3103 9.75317 8.97692 9.75317C8.64355 9.75317 8.37329 10.0234 8.37329 10.3568C8.37329 10.6902 8.64355 10.9604 8.97692 10.9604Z" fill="#8DCAFC"/>
  <path d="M6.19006 8.50585C6.52344 8.50585 6.79369 8.23559 6.79369 7.90222C6.79369 7.56884 6.52344 7.29858 6.19006 7.29858C5.85668 7.29858 5.58643 7.56884 5.58643 7.90222C5.58643 8.23559 5.85668 8.50585 6.19006 8.50585Z" fill="#8DCAFC"/>
</svg>